<?xml version="1.0" encoding="UTF-8"?>
<svg width="32px" fill="#EFEFEF" height="32px" viewBox="0 0 32 32" version="1.1" xmlns="http://www.w3.org/2000/svg"
		 xmlns:xlink="http://www.w3.org/1999/xlink">
	<path transform="translate(2.000000, 2.000000)"
		d="M8.562176,11.765824 L14,6.328 L19.4404,11.768176 L22.6044,8.604176 L14,0 L5.3984,8.6016 L8.562288,11.7656 M0,14 L3.164112,10.83544 L6.328,13.999328 L3.163888,17.16344 L0,14 Z M8.562176,16.234512 L14,21.672 L19.440288,16.231936 L22.605968,19.394256 L22.6044,19.395936 L14,28 L5.3984,19.3984 L5.39392,19.39392 L8.562512,16.234176 M21.672,14.001344 L24.836112,10.837232 L28,14.00112 L24.836,17.165232 L21.672,14.001344 Z"
		id="Shape"></path>
	<polyline transform="translate(2.000000, 2.000000)"
		id="Path"
						points="17.209024 13.99832 17.210368 13.99832 14 10.787728 11.627056 13.16 11.627056 13.16 11.354448 13.43272 10.792208 13.995072 10.787728 13.99944 10.792208 14.004032 14 17.212272 17.210592 14.00168 17.21216 13.999888 17.209248 13.99832"></polyline>
</svg>
