<svg width="16" height="18" viewBox="0 0 16 18" fill="none" xmlns="http://www.w3.org/2000/svg">
<path d="M9.40856 16.3498H1.60856V5.13418H2.79222V3.45337H1.30506C0.956173 3.46136 0.624252 3.60654 0.380341 3.85785C0.136431 4.10916 -9.00949e-05 4.44663 4.46084e-08 4.79802V16.686C4.46084e-08 17.0345 0.137497 17.3687 0.382243 17.6152C0.626989 17.8616 0.958935 18.0001 1.30506 18.0001H9.71206C10.0558 17.9923 10.3832 17.8513 10.6263 17.6066C10.8694 17.3618 11.0094 17.032 11.0171 16.686V16.3192H9.40856V16.3498Z" fill="white"/>
<path d="M15.3572 2.47538L13.1416 0.213922C12.9892 0.0818588 12.7964 0.00636254 12.5953 0L5.88794 0C5.54182 0 5.20987 0.138449 4.96513 0.384889C4.72038 0.631329 4.58288 0.965573 4.58288 1.31409V13.202C4.58288 13.5506 4.72038 13.8848 4.96513 14.1312C5.20987 14.3777 5.54182 14.5161 5.88794 14.5161H14.2949C14.6411 14.5161 14.973 14.3777 15.2178 14.1312C15.4625 13.8848 15.6 13.5506 15.6 13.202V3.05603C15.6029 2.94742 15.5827 2.83946 15.5408 2.73933C15.4989 2.6392 15.4363 2.54922 15.3572 2.47538ZM13.9914 12.8659H6.07004V1.65025H11.6241V3.05603C11.6241 3.17642 11.6477 3.29564 11.6934 3.40687C11.7392 3.51811 11.8063 3.61917 11.8908 3.70431C12.0616 3.87624 12.2932 3.97284 12.5346 3.97284H13.9914V12.8659Z" fill="white"/>
</svg>
