<?xml version="1.0" encoding="utf-8"?>
<!-- Generator: Adobe Illustrator 23.0.1, SVG Export Plug-In . SVG Version: 6.00 Build 0)  -->
<svg version="1.1" id="Layer_1" xmlns="http://www.w3.org/2000/svg" xmlns:xlink="http://www.w3.org/1999/xlink" x="0px" y="0px"
	 width="10px" height="10px" viewBox="0 0 10 10" style="enable-background:new 0 0 10 10;" xml:space="preserve">
<style type="text/css">
	.st0{fill-rule:evenodd;clip-rule:evenodd;fill:#FFFFFF;}
</style>
<path class="st0" d="M5.6,3.6l1.7-1v2L5.6,3.6z M7.3,7.8L5,9.1L2.8,7.8V5.5L5,6.8l2.3-1.3V7.8z M2.8,2.6l1.7,1l-1.7,1V2.6z M5.3,4
	L7,5L5.3,6V4z M4.7,6L3,5l1.7-1V6z M7,2.1L5,3.2L3,2.1l2-1.2L7,2.1z M2.2,1.9v6.1L5,9.7l2.8-1.6V1.9L5,0.3L2.2,1.9z"/>
</svg>
