<?xml version="1.0" encoding="utf-8"?>
<!-- Generator: Adobe Illustrator 23.0.1, SVG Export Plug-In . SVG Version: 6.00 Build 0)  -->
<svg version="1.1" id="Layer_1" xmlns="http://www.w3.org/2000/svg" xmlns:xlink="http://www.w3.org/1999/xlink" x="0px" y="0px"
     width="32px" height="34px" viewBox="0 0 32 34" enable-background="new 0 0 32 34" xml:space="preserve">
<path fill="#FFFFFF" d="M24.7,1C21,1,18,4,17.9,7.7v7.5c-0.7,0-1.4,0.1-2.1,0.1s-1.5,0-2.1,0.1V7.7c0-3.7-3.1-6.7-6.9-6.6
	C3,1.1,0.1,4.1,0,7.7v18c0.1,3.7,3.1,6.7,6.9,6.6c3.7-0.1,6.6-3,6.6-6.6v-7.5c0.7,0,1.4-0.1,2.1-0.1s1.5,0,2.1-0.1v7.6
	c0.1,3.7,3.1,6.7,6.9,6.6c3.7-0.1,6.6-3,6.6-6.6V7.7C31.4,4,28.4,1,24.7,1z M6.8,3.7c2.2,0,4,1.8,4,4v7.9c-2,0.3-3.9,0.9-5.8,1.7
	c-0.8,0.4-1.6,0.8-2.2,1.4V7.7C2.8,5.6,4.6,3.7,6.8,3.7z M10.8,25.7c0,2.2-1.8,4-4,4s-4-1.8-4-4v-1.8c0-1.6,1.3-3.1,3.4-4
	c1.5-0.7,3-1.1,4.7-1.4L10.8,25.7z M24.7,29.7c-2.2,0-4-1.8-4-4v-7.9c2-0.3,3.9-0.9,5.8-1.7c0.8-0.4,1.6-0.8,2.2-1.4v10.9
	C28.7,27.9,26.8,29.7,24.7,29.7z M25.3,13.6c-1.5,0.7-3,1.1-4.7,1.4V7.7c0-2.2,1.8-4,4-4c2.2,0,4,1.8,4,4v1.8
	C28.7,11.1,27.4,12.6,25.3,13.6z"/>
</svg>
