<?xml version="1.0" encoding="utf-8"?>
<!-- Generator: Adobe Illustrator 24.0.1, SVG Export Plug-In . SVG Version: 6.00 Build 0)  -->
<svg version="1.1" id="Capa_1" xmlns="http://www.w3.org/2000/svg" xmlns:xlink="http://www.w3.org/1999/xlink" x="0px" y="0px"
	 viewBox="0 0 121.9 121.9" style="enable-background:new 0 0 121.9 121.9;" xml:space="preserve">
<style type="text/css">
	.st0{fill:#FFFFFF;}
</style>
<title>icon</title>
<g id="Capa_2_1_">
	<g id="Capa_1-2">
		<path class="st0" d="M69.4,93.2H13.8c-2.3,0-4.3-1.6-4.8-3.8c-0.6-2.6,1.1-5.2,3.7-5.7c0.3-0.1,0.7-0.1,1-0.1h58.5
			c8.8-0.6,15.5-8.2,14.9-17c-0.5-8-6.9-14.4-14.9-14.9H61.5c-0.1,0-0.2,0-0.3,0c-1.5-0.2-2.7-1.5-2.5-3.1c0-0.1,0-0.2,0-0.3
			C59,47,60.2,46,61.6,46h27.5l3-12.5H81.4c-2.6,0-4.6-2.1-4.6-4.6c0-0.3,0-0.7,0.1-1l0.1-0.4c0.5-2.1,2.3-3.6,4.5-3.6h20.9
			l-6.6,29.5h-4.1c6.8,9.6,4.2,19.8,2.8,23.8c-1.7,4.2-4.4,7.9-8.1,10.6c-4.3,3.2-9.7,5-16,5.3C70.1,93.2,69.8,93.3,69.4,93.2z
			 M105.4,102.5l1.1-1.2l0.9-1.1c0.2-0.3,0.5-0.6,0.7-0.9c0.4-0.5,0.8-1,1.2-1.5l0.4-0.6c0.5-0.6,0.9-1.2,1.3-1.9
			c0.1-0.1,0.1-0.2,0.2-0.2c4.3-6.2,7.3-13.2,9-20.5l0.1-0.4c0.2-0.8,0.3-1.5,0.5-2.3c0.1-0.3,0.1-0.7,0.2-1
			c0.1-0.6,0.2-1.2,0.3-1.8s0.1-1.1,0.2-1.7c0-0.4,0.1-0.8,0.1-1.2c0.1-0.8,0.1-1.6,0.2-2.3c0-0.2,0-0.4,0-0.6
			c0-0.9,0.1-1.9,0.1-2.8v-0.2c0-4.1-0.5-8.3-1.3-12.3c-0.1-0.4-0.2-0.7-0.3-1.1c0-0.2-0.1-0.3-0.1-0.4c-0.1-0.3-0.2-0.7-0.2-1l0,0
			c-0.7-2.9-1.7-5.8-2.9-8.6c-0.6-1.5-1.9-2.7-3.4-3.3c-3.2-1.3-6.8,0.3-8,3.4c-0.6,1.5-0.6,3.2,0,4.7c1.4,3.2,2.4,6.5,3,9.9
			c0.1,0.5,0.2,1.1,0.3,1.6s0.1,0.9,0.2,1.3s0.1,0.7,0.1,1.1c0.1,0.6,0.1,1.3,0.2,1.9c0,0.2,0,0.3,0,0.5c0,0.8,0.1,1.6,0.1,2.5v0.1
			c0,0.9,0,1.8-0.1,2.7c0,0.1,0,0.1,0,0.2c0,0.7-0.1,1.4-0.2,2.1c0,0.2-0.1,0.5-0.1,0.7c-0.1,0.6-0.1,1.1-0.2,1.6
			c-0.3,1.7-0.6,3.5-1.1,5.2c-0.6,2.3-1.4,4.6-2.3,6.7v0.1c-0.6,1.4-1.2,2.7-1.9,4l-0.1,0.2c-0.1,0.3-0.3,0.5-0.4,0.8
			s-0.3,0.6-0.5,0.9l-0.2,0.4c-0.3,0.6-0.7,1.1-1,1.6l-0.1,0.2c-2.2,3.2-4.7,6.1-7.5,8.7l-0.4,0.4c-0.4,0.4-0.9,0.8-1.4,1.2
			s-0.7,0.6-1,0.8s-0.6,0.5-0.9,0.7c-0.6,0.4-1.2,0.8-1.7,1.2l-0.4,0.2c-0.8,0.5-1.6,1-2.4,1.5c-3.9,2.2-8,4-12.4,5.1l-0.8,0.2
			c-0.7,0.2-1.3,0.3-1.9,0.4l-1.6,0.3l-1.4,0.2c-1,0.1-2,0.2-3,0.3c-0.5,0-0.9,0-1.4,0.1c-0.7,0-1.5,0-2.2,0h-1.5
			c-0.7,0-1.5,0-2.2-0.1l-1.3-0.1c-0.8-0.1-1.5-0.2-2.2-0.3c-0.4-0.1-0.9-0.2-1.3-0.2c-0.7-0.1-1.5-0.3-2.2-0.4l-1.3-0.3
			c-0.7-0.2-1.4-0.4-2.1-0.6c-0.5-0.2-0.9-0.3-1.4-0.5c-0.7-0.2-1.3-0.5-2-0.7c-3.2-1.3-6.3-2.9-9.1-4.8l-0.2-0.1
			c-2.9-1.8-6.7-0.8-8.5,2.1c-1.7,2.8-0.9,6.3,1.7,8.2c3.4,2.3,7.1,4.2,10.9,5.8c0,0,0,0,0.1,0l0.3,0.1c0.5,0.2,1,0.4,1.5,0.6
			l0.6,0.2c0.5,0.2,1.1,0.4,1.6,0.6l0.5,0.2l1.7,0.5l0.4,0.1c0.6,0.2,1.2,0.3,1.8,0.5l0.3,0.1c0.7,0.2,1.3,0.3,2,0.4H49
			c0.7,0.1,1.3,0.3,2,0.4h0.2c0.7,0.1,1.4,0.2,2.1,0.3h0.2c0.7,0.1,1.4,0.2,2.1,0.2h0.2c0.7,0.1,1.3,0.1,2,0.1H58
			c0.6,0,1.3,0.1,1.9,0.1h0.4h1h1.2h0.8c3.5-0.1,6.9-0.6,10.3-1.3l1.2-0.3l0.9-0.2l0.5-0.1h0.2l0.4-0.1c0.8-0.2,1.5-0.4,2.3-0.7
			l0.9-0.3c0.6-0.2,1.2-0.4,1.8-0.6s1-0.4,1.4-0.5s0.8-0.3,1.2-0.5c0.6-0.3,1.2-0.5,1.8-0.8L87,116c0.7-0.3,1.4-0.7,2.2-1.1l0.3-0.2
			c0.8-0.4,1.6-0.8,2.3-1.3h0.1c2.4-1.4,4.8-3,7-4.8H99c0.7-0.6,1.4-1.1,2-1.7l0.2-0.2c0.6-0.5,1.2-1.1,1.8-1.6l0.4-0.4
			c0.5-0.5,1-1,1.4-1.4C105,103,105.2,102.7,105.4,102.5L105.4,102.5z"/>
		<path class="st0" d="M45.5,46.7c-1,5.4-0.2,9.7,2.4,12.8s6.4,4.7,11.3,4.8h5.3c1.7,0,3.1,1.2,3.3,2.8c0.2,1.7-1.1,3.3-2.8,3.5
			c-0.1,0-0.2,0-0.3,0H26.5l0,0h-5.5c-1.7,0-3.1-1.4-3.1-3.2c0-0.1,0-0.2,0-0.3c0.2-1.6,1.7-2.8,3.3-2.8h15c1.3,0,2.3-1,2.3-2.3
			c0-0.1,0-0.3,0-0.4c-0.2-1.2-1.3-2-2.4-2h-8.9c-2.4,0-4.3-2-4.3-4.4c0-0.3,0-0.6,0.1-0.9c0.5-2.1,2.3-3.5,4.4-3.5h3.2
			c3.6,0,4.9-3.1,5.3-4.9l0.2-1l0.2-1C40.3,31,50.5,23.9,65,23.9h1c2.6-0.1,4.9,1.9,5,4.6s-1.9,4.9-4.6,5c-0.1,0-0.3,0-0.4,0h-1
			C54.8,33.5,48.2,37.9,45.5,46.7z M88.7,8.5C88.1,7,87,5.8,85.5,5.1c-0.5-0.2-1-0.4-1.5-0.6h-0.1l-0.2-0.1
			c-0.8-0.3-1.6-0.6-2.4-0.9l-0.8-0.3l-1.8-0.6c-0.5-0.1-0.9-0.3-1.4-0.4l-1-0.3l-1.7-0.4l-0.5-0.1C72,1,69.9,0.6,67.7,0.4l0,0
			l-0.4-0.1C65.6,0.1,64,0,62.3,0l0,0c-0.6,0-1.1,0-1.7,0l0,0H60h-1.1h-0.4l-1.3,0.1h-0.2h-0.5h-0.3h-0.3L55,0.3h-0.1l-0.6,0.1
			l-0.5,0.1h-0.4l-0.8,0.1h-0.1h-0.2h-0.3l-0.5,0.1l-1,0.1l-0.3,0.1c-0.3,0-0.5,0.1-0.8,0.2h-0.2L49.1,1c-3.3,0.7-6.6,1.7-9.8,2.9
			l-1,0.4l0,0L38,4.5L36.8,5l-0.6,0.2h-0.1l-0.9,0.4l-0.6,0.3c-1.4,0.7-2.8,1.5-4.2,2.3l-0.3,0.2l-0.7,0.4l-0.2,0.2
			c-0.5,0.3-1.1,0.7-1.6,1l-0.5,0.3H27l-0.1,0.1l-0.5,0.4c-0.3,0.2-0.5,0.3-0.8,0.5s-0.7,0.5-1.1,0.8L24,12.5
			c-1.1,0.8-2.2,1.7-3.2,2.6l-0.5,0.4l-0.5,0.4c-2.4,2.2-4.7,4.7-6.8,7.2l-0.2,0.2C10.1,27,7.7,30.9,5.8,35c0,0,0,0.1,0,0.1
			c-1.1,2.2-2,4.5-2.8,6.8l0,0l0,0c-0.3,0.9-0.5,1.8-0.8,2.7v0.1c0,0.2-0.1,0.3-0.1,0.5L1.9,46c-0.1,0.3-0.2,0.6-0.2,0.9
			s-0.1,0.6-0.2,0.8v0.1C0.3,53.1-0.2,58.6,0.1,64c0,0.3,0,0.6,0.1,0.8c0.4,3.4,3.5,5.8,6.9,5.4c3.2-0.4,5.6-3.2,5.4-6.4v-0.1v-0.4
			c-0.1-3,0-6,0.4-8.9l0,0c0.7-5.1,2.2-10,4.4-14.6c0.2-0.3,0.3-0.7,0.5-1s0.4-0.8,0.6-1.2s0.5-0.8,0.7-1.3s0.4-0.7,0.6-1
			c0.3-0.5,0.7-1.1,1-1.6s0.9-1.3,1.3-1.8s0.8-1.1,1.3-1.7s0.9-1,1.3-1.6s1-1.2,1.6-1.8l0.6-0.6l0.9-0.9l0.7-0.6
			c0.8-0.7,1.6-1.4,2.4-2l0.1-0.1c0.9-0.7,1.7-1.3,2.6-2l0.3-0.2c0.4-0.3,0.8-0.5,1.2-0.8l0.8-0.5c0.5-0.3,1-0.6,1.5-0.9
			s0.9-0.5,1.4-0.8s0.8-0.4,1.2-0.6c0.6-0.3,1.2-0.5,1.7-0.8l0.7-0.3c0.7-0.3,1.3-0.5,2-0.8c0.4-0.1,0.8-0.3,1.2-0.4l1.2-0.4
			c0.5-0.1,1-0.3,1.5-0.4l0.2-0.1l0.6-0.1c1.1-0.3,2.2-0.5,3.3-0.7c0.4-0.1,0.9-0.2,1.3-0.2s1.2-0.2,1.8-0.2c0.4,0,0.8-0.1,1.2-0.1
			l1-0.1l1.4-0.1h1h1.3h1.5h1.1l1.5,0.1l1,0.1c0.5,0.1,1,0.1,1.5,0.2l1,0.2l1.4,0.2l1.1,0.2c0.4,0.1,0.9,0.2,1.3,0.3l1.2,0.3
			l1.2,0.4c0.4,0.1,0.8,0.2,1.2,0.4l1.2,0.4l1.2,0.5c0.6,0.2,1.2,0.5,1.8,0.7c3.1,1.4,6.8-0.1,8.1-3.2C89.2,11.7,89.3,10.1,88.7,8.5
			z"/>
	</g>
</g>
</svg>
