<svg width="13" height="21" viewBox="0 0 13 21" fill="#fff" xmlns="http://www.w3.org/2000/svg">
<path d="M10.1436 5.82833H8.4662C8.33515 5.82833 8.2041 5.71405 8.2041 5.54262L8.2041 0.971191C8.2041 0.428334 8.70209 -0.0288086 9.30491 -0.0288086C9.90773 -0.0288086 10.4057 0.428334 10.4057 0.971191V5.54262C10.4057 5.71405 10.3009 5.82833 10.1436 5.82833ZM8.75451 5.28548H9.90773V0.999763C9.90773 0.771191 9.64563 0.571191 9.33112 0.571191C9.0166 0.571191 8.75451 0.771191 8.75451 0.999763V5.28548Z"/>
<path d="M4.50787 5.82833H2.83046C2.69941 5.82833 2.56836 5.71405 2.56836 5.54262L2.56836 0.971191C2.56836 0.428334 3.06634 -0.0288086 3.66917 -0.0288086C4.27199 -0.0288086 4.76997 0.428334 4.76997 0.971191L4.76997 5.54262C4.76997 5.71405 4.66513 5.82833 4.50787 5.82833ZM3.11876 5.28548H4.27199L4.27199 0.999763C4.27199 0.771191 4.00989 0.571191 3.69537 0.571191C3.38086 0.571191 3.11876 0.771191 3.11876 0.999763L3.11876 5.28548Z"/>
<path d="M9.04209 16.7137H3.95741C3.82636 16.7137 3.69531 16.5994 3.69531 16.428L3.69531 14.7994C3.69531 14.6565 3.80015 14.5137 3.95741 14.5137H9.04209C9.17314 14.5137 9.30419 14.628 9.30419 14.7994V16.428C9.30419 16.5708 9.19935 16.7137 9.04209 16.7137ZM4.21951 16.1422H8.8062V15.0851H4.21951V16.1422Z"/>
<path d="M9.48724 15.0853H3.51144C2.48926 15.0853 1.67676 14.1996 1.67676 13.0853L1.67676 10.8853C1.67676 10.7425 1.7816 10.5996 1.93885 10.5996L11.0598 10.5996C11.1909 10.5996 11.3219 10.7139 11.3219 10.8853V13.0853C11.3219 14.171 10.5094 15.0853 9.48724 15.0853ZM2.20095 11.171L2.20095 13.0853C2.20095 13.8853 2.80377 14.5139 3.51144 14.5139L9.48724 14.5139C10.2211 14.5139 10.7977 13.8568 10.7977 13.0853V11.171L2.20095 11.171Z"/>
<path d="M11.7422 9.62827L1.28456 9.62827C1.15351 9.62827 1.02246 9.51398 1.02246 9.34255L1.02246 5.54255C1.02246 5.39969 1.1273 5.25684 1.28456 5.25684L11.7422 5.25684C11.8733 5.25684 12.0043 5.37112 12.0043 5.54255V9.31398C11.9781 9.48541 11.8733 9.62827 11.7422 9.62827ZM1.52044 9.05684L11.4539 9.05684V5.82826L1.52044 5.82826L1.52044 9.05684Z"/>
<path d="M12.0302 11.1709L0.969758 11.1709C0.445565 11.1709 0 10.6852 0 10.1138C0 9.54236 0.445565 9.05664 0.969758 9.05664L12.0302 9.05664C12.5544 9.05664 13 9.54236 13 10.1138C13 10.6852 12.5806 11.1709 12.0302 11.1709ZM0.969758 9.62807C0.707661 9.62807 0.524194 9.85664 0.524194 10.1138C0.524194 10.3995 0.733871 10.5995 0.969758 10.5995L12.0302 10.5995C12.2923 10.5995 12.4758 10.3709 12.4758 10.1138C12.4758 9.82807 12.2661 9.62807 12.0302 9.62807L0.969758 9.62807Z"/>
<path d="M7.60043 20.9997C7.46938 20.9997 7.33833 20.8854 7.33833 20.714L7.33833 16.714H5.66091L5.66091 20.714C5.66091 20.8569 5.55607 20.9997 5.39882 20.9997C5.24156 20.9997 5.13672 20.8854 5.13672 20.714L5.13672 16.4283C5.13672 16.2854 5.24156 16.1426 5.39882 16.1426H7.60043C7.73148 16.1426 7.86253 16.2569 7.86253 16.4283L7.86253 20.714C7.86253 20.8569 7.75769 20.9997 7.60043 20.9997Z"/>
</svg>
