<svg width="29" height="24" viewBox="0 0 29 24" fill="none" xmlns="http://www.w3.org/2000/svg">
<path d="M22.0037 7.33367C21.4914 7.04992 20.8353 7.04992 20.2493 7.33367L16.1546 9.68563L13.3756 11.1795L9.35459 13.5315C8.84231 13.8153 8.18617 13.8153 7.6002 13.5315L4.45634 11.6787C3.94406 11.3949 3.57915 10.824 3.57915 10.1813V6.6226C3.57915 6.05171 3.87038 5.48422 4.45634 5.12528L7.6002 3.34421C8.11248 3.06047 8.76862 3.06047 9.35459 3.34421L12.4984 5.19707C13.0107 5.48081 13.3756 6.05171 13.3756 6.6944V9.04636L16.1546 7.48066V5.06032C16.1546 4.48942 15.8634 3.92194 15.2774 3.56299L9.42827 0.212805C8.91599 -0.0709351 8.25985 -0.0709351 7.67389 0.212805L1.6809 3.63137C1.09494 3.91511 0.803711 4.486 0.803711 5.0569V11.7504C0.803711 12.3213 1.09494 12.8888 1.6809 13.2444L7.60371 16.5911C8.11599 16.8749 8.77213 16.8749 9.3581 16.5911L13.3791 14.3109L16.1581 12.7452L20.1791 10.4651C20.6914 10.1813 21.3476 10.1813 21.9335 10.4651L25.0774 12.2461C25.5897 12.5299 25.9546 13.1008 25.9546 13.7435V17.3056C25.9546 17.8765 25.6634 18.444 25.0774 18.8029L22.0037 20.5806C21.4914 20.8643 20.8353 20.8643 20.2493 20.5806L17.1055 18.8029C16.5932 18.5192 16.2283 17.9483 16.2283 17.3056V15.0254L13.4493 16.5911V18.9431C13.4493 19.514 13.7406 20.0815 14.3265 20.4404L20.2493 23.7872C20.7616 24.0709 21.4177 24.0709 22.0037 23.7872L27.9265 20.4404C28.4388 20.1567 28.8037 19.5858 28.8037 18.9431V12.1778C28.8037 11.6069 28.5125 11.0394 27.9265 10.6804L22.0037 7.33367Z" fill="#EFEFEF"/>
</svg>
